<mxfile host="app.diagrams.net" modified="2022-03-23T13:47:45.745Z" agent="5.0 (Macintosh; Intel Mac OS X 10_15_7) AppleWebKit/605.1.15 (KHTML, like Gecko) Version/15.4 Safari/605.1.15" etag="7E5eFfns91buDWaWncNz" version="17.1.3" type="github">
  <diagram id="GkwxvoKI0v0egCr2lqlU" name="Page-1">
    <mxGraphModel dx="1577" dy="1075" grid="1" gridSize="10" guides="1" tooltips="1" connect="1" arrows="1" fold="1" page="1" pageScale="1" pageWidth="850" pageHeight="1100" math="0" shadow="0">
      <root>
        <mxCell id="0" />
        <mxCell id="1" parent="0" />
        <mxCell id="E888Yq9Kur7Cg7WXhxhu-9" style="edgeStyle=none;rounded=0;orthogonalLoop=1;jettySize=auto;html=1;exitX=1;exitY=0.5;exitDx=0;exitDy=0;entryX=0;entryY=0.5;entryDx=0;entryDy=0;fontColor=#000000;endArrow=none;endFill=0;strokeColor=#000000;" parent="1" source="E888Yq9Kur7Cg7WXhxhu-10" target="E888Yq9Kur7Cg7WXhxhu-44" edge="1">
          <mxGeometry relative="1" as="geometry" />
        </mxCell>
        <mxCell id="E888Yq9Kur7Cg7WXhxhu-10" value="" style="ellipse;whiteSpace=wrap;html=1;aspect=fixed;" parent="1" vertex="1">
          <mxGeometry x="500" y="416" width="30" height="30" as="geometry" />
        </mxCell>
        <mxCell id="E888Yq9Kur7Cg7WXhxhu-11" style="edgeStyle=none;rounded=0;orthogonalLoop=1;jettySize=auto;html=1;exitX=1;exitY=0.5;exitDx=0;exitDy=0;entryX=0;entryY=0.5;entryDx=0;entryDy=0;fontSize=18;endArrow=none;endFill=0;fontColor=#FF0000;strokeColor=#FF0000;" parent="1" source="E888Yq9Kur7Cg7WXhxhu-12" target="E888Yq9Kur7Cg7WXhxhu-19" edge="1">
          <mxGeometry relative="1" as="geometry" />
        </mxCell>
        <mxCell id="E888Yq9Kur7Cg7WXhxhu-12" value="" style="ellipse;whiteSpace=wrap;html=1;aspect=fixed;fontColor=#FF0000;fillColor=#FF0000;strokeColor=#FF0000;" parent="1" vertex="1">
          <mxGeometry x="500" y="474" width="30" height="30" as="geometry" />
        </mxCell>
        <mxCell id="E888Yq9Kur7Cg7WXhxhu-13" style="edgeStyle=none;rounded=0;orthogonalLoop=1;jettySize=auto;html=1;exitX=1;exitY=0.5;exitDx=0;exitDy=0;entryX=0;entryY=0.5;entryDx=0;entryDy=0;fontSize=18;endArrow=none;endFill=0;" parent="1" source="E888Yq9Kur7Cg7WXhxhu-14" target="E888Yq9Kur7Cg7WXhxhu-51" edge="1">
          <mxGeometry relative="1" as="geometry">
            <mxPoint x="570" y="555.0000000000002" as="targetPoint" />
          </mxGeometry>
        </mxCell>
        <mxCell id="E888Yq9Kur7Cg7WXhxhu-14" value="" style="ellipse;whiteSpace=wrap;html=1;aspect=fixed;" parent="1" vertex="1">
          <mxGeometry x="500" y="620" width="30" height="30" as="geometry" />
        </mxCell>
        <mxCell id="E888Yq9Kur7Cg7WXhxhu-15" style="edgeStyle=none;rounded=0;orthogonalLoop=1;jettySize=auto;html=1;exitX=1;exitY=0.5;exitDx=0;exitDy=0;entryX=0;entryY=0.633;entryDx=0;entryDy=0;fontSize=18;endArrow=none;endFill=0;entryPerimeter=0;" parent="1" source="E888Yq9Kur7Cg7WXhxhu-17" target="E888Yq9Kur7Cg7WXhxhu-58" edge="1">
          <mxGeometry relative="1" as="geometry">
            <mxPoint x="230" y="463" as="targetPoint" />
          </mxGeometry>
        </mxCell>
        <mxCell id="E888Yq9Kur7Cg7WXhxhu-16" style="rounded=0;orthogonalLoop=1;jettySize=auto;html=1;exitX=1;exitY=0.5;exitDx=0;exitDy=0;entryX=0;entryY=0.5;entryDx=0;entryDy=0;fontFamily=Georgia;fontSize=27;endArrow=none;endFill=0;" parent="1" source="E888Yq9Kur7Cg7WXhxhu-17" target="E888Yq9Kur7Cg7WXhxhu-60" edge="1">
          <mxGeometry relative="1" as="geometry">
            <mxPoint x="230" y="606" as="targetPoint" />
          </mxGeometry>
        </mxCell>
        <mxCell id="E888Yq9Kur7Cg7WXhxhu-17" value="" style="ellipse;whiteSpace=wrap;html=1;aspect=fixed;" parent="1" vertex="1">
          <mxGeometry x="250" y="520" width="30" height="30" as="geometry" />
        </mxCell>
        <mxCell id="E888Yq9Kur7Cg7WXhxhu-18" style="edgeStyle=none;rounded=0;orthogonalLoop=1;jettySize=auto;html=1;exitX=1;exitY=0.5;exitDx=0;exitDy=0;entryX=0;entryY=0.5;entryDx=0;entryDy=0;fontSize=18;endArrow=none;endFill=0;fontColor=#FF0000;strokeColor=#FF0000;" parent="1" source="E888Yq9Kur7Cg7WXhxhu-19" target="E888Yq9Kur7Cg7WXhxhu-21" edge="1">
          <mxGeometry relative="1" as="geometry" />
        </mxCell>
        <mxCell id="E888Yq9Kur7Cg7WXhxhu-19" value="" style="ellipse;whiteSpace=wrap;html=1;aspect=fixed;fontColor=#FF0000;fillColor=#FF0000;strokeColor=#FF0000;" parent="1" vertex="1">
          <mxGeometry x="590" y="474" width="30" height="30" as="geometry" />
        </mxCell>
        <mxCell id="E888Yq9Kur7Cg7WXhxhu-20" style="edgeStyle=none;rounded=0;orthogonalLoop=1;jettySize=auto;html=1;exitX=1;exitY=0.5;exitDx=0;exitDy=0;entryX=0;entryY=0.5;entryDx=0;entryDy=0;fontColor=#FF0000;endArrow=none;endFill=0;strokeColor=#FF0000;" parent="1" source="E888Yq9Kur7Cg7WXhxhu-21" target="E888Yq9Kur7Cg7WXhxhu-54" edge="1">
          <mxGeometry relative="1" as="geometry" />
        </mxCell>
        <mxCell id="E888Yq9Kur7Cg7WXhxhu-21" value="" style="ellipse;whiteSpace=wrap;html=1;aspect=fixed;fontColor=#FF0000;fillColor=#FF0000;strokeColor=#FF0000;" parent="1" vertex="1">
          <mxGeometry x="716" y="474" width="30" height="30" as="geometry" />
        </mxCell>
        <mxCell id="E888Yq9Kur7Cg7WXhxhu-22" value="&lt;span style=&quot;font-family: &amp;#34;georgia&amp;#34; ; font-size: 27px&quot;&gt;&amp;lt;s&amp;gt;&lt;/span&gt;" style="text;html=1;align=center;verticalAlign=middle;resizable=0;points=[];autosize=1;strokeColor=none;fillColor=none;" parent="1" vertex="1">
          <mxGeometry x="190" y="525" width="60" height="20" as="geometry" />
        </mxCell>
        <mxCell id="E888Yq9Kur7Cg7WXhxhu-29" value="&lt;font style=&quot;font-size: 27px&quot; face=&quot;Georgia&quot;&gt;the&lt;/font&gt;" style="text;html=1;align=center;verticalAlign=middle;resizable=0;points=[];autosize=1;strokeColor=none;fillColor=none;fontColor=#FF0000;" parent="1" vertex="1">
          <mxGeometry x="641" y="552" width="50" height="20" as="geometry" />
        </mxCell>
        <mxCell id="E888Yq9Kur7Cg7WXhxhu-30" value="&lt;font style=&quot;font-size: 27px&quot; face=&quot;Georgia&quot;&gt;the&lt;/font&gt;" style="text;html=1;align=center;verticalAlign=middle;resizable=0;points=[];autosize=1;strokeColor=none;fillColor=none;fontColor=#FF0000;" parent="1" vertex="1">
          <mxGeometry x="641" y="464" width="50" height="20" as="geometry" />
        </mxCell>
        <mxCell id="E888Yq9Kur7Cg7WXhxhu-31" value="&lt;font style=&quot;font-size: 27px&quot; face=&quot;Georgia&quot;&gt;these&lt;/font&gt;" style="text;html=1;align=center;verticalAlign=middle;resizable=0;points=[];autosize=1;strokeColor=none;fillColor=none;" parent="1" vertex="1">
          <mxGeometry x="626" y="407" width="80" height="20" as="geometry" />
        </mxCell>
        <mxCell id="E888Yq9Kur7Cg7WXhxhu-32" value="&lt;font style=&quot;font-size: 27px&quot; face=&quot;Georgia&quot;&gt;there&lt;/font&gt;" style="text;html=1;align=center;verticalAlign=middle;resizable=0;points=[];autosize=1;strokeColor=none;fillColor=none;" parent="1" vertex="1">
          <mxGeometry x="626" y="611" width="80" height="20" as="geometry" />
        </mxCell>
        <mxCell id="E888Yq9Kur7Cg7WXhxhu-36" style="edgeStyle=none;rounded=0;orthogonalLoop=1;jettySize=auto;html=1;exitX=1;exitY=0.5;exitDx=0;exitDy=0;fontColor=#FF0000;endArrow=none;endFill=0;strokeColor=#000000;entryX=0;entryY=0.5;entryDx=0;entryDy=0;" parent="1" source="E888Yq9Kur7Cg7WXhxhu-37" target="E888Yq9Kur7Cg7WXhxhu-54" edge="1">
          <mxGeometry relative="1" as="geometry">
            <mxPoint x="820" y="550" as="targetPoint" />
          </mxGeometry>
        </mxCell>
        <mxCell id="E888Yq9Kur7Cg7WXhxhu-37" value="" style="ellipse;whiteSpace=wrap;html=1;aspect=fixed;fillColor=none;" parent="1" vertex="1">
          <mxGeometry x="716" y="620" width="30" height="30" as="geometry" />
        </mxCell>
        <mxCell id="E888Yq9Kur7Cg7WXhxhu-38" style="edgeStyle=none;rounded=0;orthogonalLoop=1;jettySize=auto;html=1;exitX=1;exitY=0.5;exitDx=0;exitDy=0;fontColor=#FF0000;endArrow=none;endFill=0;strokeColor=#FF0000;entryX=0;entryY=0.5;entryDx=0;entryDy=0;" parent="1" source="E888Yq9Kur7Cg7WXhxhu-39" target="E888Yq9Kur7Cg7WXhxhu-54" edge="1">
          <mxGeometry relative="1" as="geometry">
            <mxPoint x="810" y="550" as="targetPoint" />
          </mxGeometry>
        </mxCell>
        <mxCell id="E888Yq9Kur7Cg7WXhxhu-39" value="" style="ellipse;whiteSpace=wrap;html=1;aspect=fixed;fontColor=#FF0000;fillColor=#FF0000;strokeColor=#FF0000;" parent="1" vertex="1">
          <mxGeometry x="716" y="561" width="30" height="30" as="geometry" />
        </mxCell>
        <mxCell id="E888Yq9Kur7Cg7WXhxhu-40" style="edgeStyle=none;rounded=0;orthogonalLoop=1;jettySize=auto;html=1;exitX=1;exitY=0.5;exitDx=0;exitDy=0;entryX=0;entryY=0.5;entryDx=0;entryDy=0;fontColor=#FF0000;endArrow=none;endFill=0;strokeColor=#000000;" parent="1" source="E888Yq9Kur7Cg7WXhxhu-41" target="E888Yq9Kur7Cg7WXhxhu-54" edge="1">
          <mxGeometry relative="1" as="geometry" />
        </mxCell>
        <mxCell id="E888Yq9Kur7Cg7WXhxhu-41" value="" style="ellipse;whiteSpace=wrap;html=1;aspect=fixed;fillColor=none;" parent="1" vertex="1">
          <mxGeometry x="716" y="416" width="30" height="30" as="geometry" />
        </mxCell>
        <mxCell id="E888Yq9Kur7Cg7WXhxhu-43" style="edgeStyle=none;rounded=0;orthogonalLoop=1;jettySize=auto;html=1;exitX=1;exitY=0.5;exitDx=0;exitDy=0;entryX=0;entryY=0.5;entryDx=0;entryDy=0;fontColor=#000000;endArrow=none;endFill=0;strokeColor=#000000;" parent="1" source="E888Yq9Kur7Cg7WXhxhu-44" target="E888Yq9Kur7Cg7WXhxhu-41" edge="1">
          <mxGeometry relative="1" as="geometry" />
        </mxCell>
        <mxCell id="E888Yq9Kur7Cg7WXhxhu-44" value="" style="ellipse;whiteSpace=wrap;html=1;aspect=fixed;" parent="1" vertex="1">
          <mxGeometry x="590" y="416" width="30" height="30" as="geometry" />
        </mxCell>
        <mxCell id="E888Yq9Kur7Cg7WXhxhu-45" style="edgeStyle=none;rounded=0;orthogonalLoop=1;jettySize=auto;html=1;exitX=1;exitY=0.5;exitDx=0;exitDy=0;entryX=0;entryY=0.5;entryDx=0;entryDy=0;fontColor=#FF0000;endArrow=none;endFill=0;strokeColor=#FF0000;" parent="1" source="E888Yq9Kur7Cg7WXhxhu-46" target="E888Yq9Kur7Cg7WXhxhu-49" edge="1">
          <mxGeometry relative="1" as="geometry" />
        </mxCell>
        <mxCell id="E888Yq9Kur7Cg7WXhxhu-46" value="" style="ellipse;whiteSpace=wrap;html=1;aspect=fixed;fontColor=#FF0000;fillColor=#FF0000;strokeColor=#FF0000;" parent="1" vertex="1">
          <mxGeometry x="500" y="561" width="30" height="30" as="geometry" />
        </mxCell>
        <mxCell id="E888Yq9Kur7Cg7WXhxhu-48" style="edgeStyle=none;rounded=0;orthogonalLoop=1;jettySize=auto;html=1;exitX=1;exitY=0.5;exitDx=0;exitDy=0;entryX=0;entryY=0.5;entryDx=0;entryDy=0;fontColor=#FF0000;endArrow=none;endFill=0;strokeColor=#FF0000;" parent="1" source="E888Yq9Kur7Cg7WXhxhu-49" target="E888Yq9Kur7Cg7WXhxhu-39" edge="1">
          <mxGeometry relative="1" as="geometry" />
        </mxCell>
        <mxCell id="E888Yq9Kur7Cg7WXhxhu-49" value="" style="ellipse;whiteSpace=wrap;html=1;aspect=fixed;fontColor=#FF0000;fillColor=#FF0000;strokeColor=#FF0000;" parent="1" vertex="1">
          <mxGeometry x="590" y="561" width="30" height="30" as="geometry" />
        </mxCell>
        <mxCell id="E888Yq9Kur7Cg7WXhxhu-50" style="edgeStyle=none;rounded=0;orthogonalLoop=1;jettySize=auto;html=1;exitX=1;exitY=0.5;exitDx=0;exitDy=0;entryX=0;entryY=0.5;entryDx=0;entryDy=0;fontColor=#FF0000;endArrow=none;endFill=0;strokeColor=#000000;" parent="1" source="E888Yq9Kur7Cg7WXhxhu-51" target="E888Yq9Kur7Cg7WXhxhu-37" edge="1">
          <mxGeometry relative="1" as="geometry" />
        </mxCell>
        <mxCell id="E888Yq9Kur7Cg7WXhxhu-51" value="" style="ellipse;whiteSpace=wrap;html=1;aspect=fixed;" parent="1" vertex="1">
          <mxGeometry x="590" y="620" width="30" height="30" as="geometry" />
        </mxCell>
        <mxCell id="E888Yq9Kur7Cg7WXhxhu-101" style="edgeStyle=none;rounded=0;orthogonalLoop=1;jettySize=auto;html=1;exitX=1;exitY=0.5;exitDx=0;exitDy=0;entryX=0;entryY=0.5;entryDx=0;entryDy=0;fontColor=#000000;endArrow=none;endFill=0;strokeColor=#000000;" parent="1" source="E888Yq9Kur7Cg7WXhxhu-54" target="E888Yq9Kur7Cg7WXhxhu-100" edge="1">
          <mxGeometry relative="1" as="geometry" />
        </mxCell>
        <mxCell id="E888Yq9Kur7Cg7WXhxhu-54" value="" style="ellipse;whiteSpace=wrap;html=1;aspect=fixed;fillColor=none;" parent="1" vertex="1">
          <mxGeometry x="871" y="520" width="30" height="30" as="geometry" />
        </mxCell>
        <mxCell id="E888Yq9Kur7Cg7WXhxhu-57" style="edgeStyle=none;rounded=0;orthogonalLoop=1;jettySize=auto;html=1;exitX=1;exitY=0.5;exitDx=0;exitDy=0;entryX=0;entryY=0.5;entryDx=0;entryDy=0;fontColor=#000000;endArrow=none;endFill=0;strokeColor=#FF0000;" parent="1" source="E888Yq9Kur7Cg7WXhxhu-58" target="E888Yq9Kur7Cg7WXhxhu-12" edge="1">
          <mxGeometry relative="1" as="geometry" />
        </mxCell>
        <mxCell id="E888Yq9Kur7Cg7WXhxhu-117" style="edgeStyle=none;rounded=0;orthogonalLoop=1;jettySize=auto;html=1;exitX=1;exitY=0.5;exitDx=0;exitDy=0;entryX=0;entryY=0.5;entryDx=0;entryDy=0;fontColor=#FF0000;endArrow=none;endFill=0;strokeColor=#000000;" parent="1" source="E888Yq9Kur7Cg7WXhxhu-58" target="E888Yq9Kur7Cg7WXhxhu-10" edge="1">
          <mxGeometry relative="1" as="geometry" />
        </mxCell>
        <mxCell id="E888Yq9Kur7Cg7WXhxhu-58" value="" style="ellipse;whiteSpace=wrap;html=1;aspect=fixed;fontColor=#FF0000;fillColor=#FF0000;strokeColor=#FF0000;" parent="1" vertex="1">
          <mxGeometry x="367" y="448" width="30" height="30" as="geometry" />
        </mxCell>
        <mxCell id="E888Yq9Kur7Cg7WXhxhu-59" style="edgeStyle=none;rounded=0;orthogonalLoop=1;jettySize=auto;html=1;exitX=1;exitY=0.5;exitDx=0;exitDy=0;entryX=0;entryY=0.5;entryDx=0;entryDy=0;fontColor=#000000;endArrow=none;endFill=0;strokeColor=#FF0000;" parent="1" source="E888Yq9Kur7Cg7WXhxhu-60" target="E888Yq9Kur7Cg7WXhxhu-46" edge="1">
          <mxGeometry relative="1" as="geometry" />
        </mxCell>
        <mxCell id="E888Yq9Kur7Cg7WXhxhu-118" style="edgeStyle=none;rounded=0;orthogonalLoop=1;jettySize=auto;html=1;exitX=1;exitY=0.5;exitDx=0;exitDy=0;entryX=0;entryY=0.5;entryDx=0;entryDy=0;fontColor=#FF0000;endArrow=none;endFill=0;strokeColor=#000000;" parent="1" source="E888Yq9Kur7Cg7WXhxhu-60" target="E888Yq9Kur7Cg7WXhxhu-14" edge="1">
          <mxGeometry relative="1" as="geometry" />
        </mxCell>
        <mxCell id="E888Yq9Kur7Cg7WXhxhu-60" value="" style="ellipse;whiteSpace=wrap;html=1;aspect=fixed;fontColor=#FF0000;fillColor=#FF0000;strokeColor=#FF0000;" parent="1" vertex="1">
          <mxGeometry x="367" y="592" width="30" height="30" as="geometry" />
        </mxCell>
        <mxCell id="E888Yq9Kur7Cg7WXhxhu-66" value="" style="ellipse;whiteSpace=wrap;html=1;aspect=fixed;fontColor=#FF0000;fillColor=none;strokeColor=#000000;" parent="1" vertex="1">
          <mxGeometry x="1095" y="520" width="30" height="30" as="geometry" />
        </mxCell>
        <mxCell id="E888Yq9Kur7Cg7WXhxhu-67" style="rounded=0;orthogonalLoop=1;jettySize=auto;html=1;exitX=1;exitY=0.5;exitDx=0;exitDy=0;entryX=0;entryY=0.5;entryDx=0;entryDy=0;endArrow=none;endFill=0;fontColor=#FF0000;strokeColor=#000000;" parent="1" source="E888Yq9Kur7Cg7WXhxhu-66" target="E888Yq9Kur7Cg7WXhxhu-69" edge="1">
          <mxGeometry relative="1" as="geometry">
            <mxPoint x="1144.9999999999995" y="499.9999999999998" as="sourcePoint" />
          </mxGeometry>
        </mxCell>
        <mxCell id="E888Yq9Kur7Cg7WXhxhu-68" style="edgeStyle=none;rounded=0;orthogonalLoop=1;jettySize=auto;html=1;exitX=1;exitY=0.5;exitDx=0;exitDy=0;entryX=0;entryY=0.5;entryDx=0;entryDy=0;endArrow=none;endFill=0;fontColor=#FF0000;strokeColor=#000000;" parent="1" source="E888Yq9Kur7Cg7WXhxhu-69" target="E888Yq9Kur7Cg7WXhxhu-72" edge="1">
          <mxGeometry relative="1" as="geometry" />
        </mxCell>
        <mxCell id="E888Yq9Kur7Cg7WXhxhu-69" value="" style="ellipse;whiteSpace=wrap;html=1;aspect=fixed;fontColor=#FF0000;fillColor=none;strokeColor=#000000;" parent="1" vertex="1">
          <mxGeometry x="1195" y="520" width="30" height="30" as="geometry" />
        </mxCell>
        <mxCell id="E888Yq9Kur7Cg7WXhxhu-70" style="edgeStyle=none;rounded=0;orthogonalLoop=1;jettySize=auto;html=1;exitX=1;exitY=0.5;exitDx=0;exitDy=0;entryX=0;entryY=0.5;entryDx=0;entryDy=0;fontSize=18;endArrow=none;endFill=0;" parent="1" source="E888Yq9Kur7Cg7WXhxhu-72" target="E888Yq9Kur7Cg7WXhxhu-74" edge="1">
          <mxGeometry relative="1" as="geometry" />
        </mxCell>
        <mxCell id="E888Yq9Kur7Cg7WXhxhu-71" style="edgeStyle=none;rounded=0;orthogonalLoop=1;jettySize=auto;html=1;exitX=1;exitY=0.5;exitDx=0;exitDy=0;entryX=0;entryY=0.5;entryDx=0;entryDy=0;fontSize=18;endArrow=none;endFill=0;" parent="1" source="E888Yq9Kur7Cg7WXhxhu-72" target="E888Yq9Kur7Cg7WXhxhu-76" edge="1">
          <mxGeometry relative="1" as="geometry" />
        </mxCell>
        <mxCell id="E888Yq9Kur7Cg7WXhxhu-72" value="" style="ellipse;whiteSpace=wrap;html=1;aspect=fixed;fontColor=#FF0000;fillColor=none;strokeColor=#000000;" parent="1" vertex="1">
          <mxGeometry x="1305" y="520" width="30" height="30" as="geometry" />
        </mxCell>
        <mxCell id="E888Yq9Kur7Cg7WXhxhu-73" style="edgeStyle=none;rounded=0;orthogonalLoop=1;jettySize=auto;html=1;exitX=1;exitY=0.5;exitDx=0;exitDy=0;entryX=0;entryY=0.5;entryDx=0;entryDy=0;fontSize=18;endArrow=none;endFill=0;" parent="1" source="E888Yq9Kur7Cg7WXhxhu-74" target="E888Yq9Kur7Cg7WXhxhu-77" edge="1">
          <mxGeometry relative="1" as="geometry" />
        </mxCell>
        <mxCell id="E888Yq9Kur7Cg7WXhxhu-74" value="" style="ellipse;whiteSpace=wrap;html=1;aspect=fixed;" parent="1" vertex="1">
          <mxGeometry x="1424" y="485" width="30" height="30" as="geometry" />
        </mxCell>
        <mxCell id="E888Yq9Kur7Cg7WXhxhu-75" style="edgeStyle=none;rounded=0;orthogonalLoop=1;jettySize=auto;html=1;exitX=1;exitY=0.5;exitDx=0;exitDy=0;fontSize=18;endArrow=none;endFill=0;entryX=0;entryY=0.5;entryDx=0;entryDy=0;" parent="1" source="E888Yq9Kur7Cg7WXhxhu-76" target="E888Yq9Kur7Cg7WXhxhu-77" edge="1">
          <mxGeometry relative="1" as="geometry">
            <mxPoint x="1734" y="565" as="targetPoint" />
          </mxGeometry>
        </mxCell>
        <mxCell id="E888Yq9Kur7Cg7WXhxhu-76" value="" style="ellipse;whiteSpace=wrap;html=1;aspect=fixed;" parent="1" vertex="1">
          <mxGeometry x="1424" y="565" width="30" height="30" as="geometry" />
        </mxCell>
        <mxCell id="E888Yq9Kur7Cg7WXhxhu-77" value="" style="ellipse;whiteSpace=wrap;html=1;aspect=fixed;" parent="1" vertex="1">
          <mxGeometry x="1545" y="520" width="30" height="30" as="geometry" />
        </mxCell>
        <mxCell id="E888Yq9Kur7Cg7WXhxhu-78" value="&lt;font style=&quot;font-size: 27px&quot; face=&quot;Georgia&quot;&gt;on&lt;/font&gt;" style="text;html=1;align=center;verticalAlign=middle;resizable=0;points=[];autosize=1;strokeColor=none;fillColor=none;fontColor=#000000;" parent="1" vertex="1">
          <mxGeometry x="1135" y="510" width="50" height="20" as="geometry" />
        </mxCell>
        <mxCell id="E888Yq9Kur7Cg7WXhxhu-79" value="&lt;font style=&quot;font-size: 27px&quot; face=&quot;Georgia&quot;&gt;the&lt;/font&gt;" style="text;html=1;align=center;verticalAlign=middle;resizable=0;points=[];autosize=1;strokeColor=none;fillColor=none;fontColor=#000000;" parent="1" vertex="1">
          <mxGeometry x="1245" y="510" width="50" height="20" as="geometry" />
        </mxCell>
        <mxCell id="E888Yq9Kur7Cg7WXhxhu-80" value="&lt;font style=&quot;font-size: 27px&quot; face=&quot;Georgia&quot;&gt;desk&lt;/font&gt;" style="text;html=1;align=center;verticalAlign=middle;resizable=0;points=[];autosize=1;strokeColor=none;fillColor=none;" parent="1" vertex="1">
          <mxGeometry x="1330" y="490" width="70" height="20" as="geometry" />
        </mxCell>
        <mxCell id="E888Yq9Kur7Cg7WXhxhu-81" value="&lt;font style=&quot;font-size: 27px&quot; face=&quot;Georgia&quot;&gt;task&lt;/font&gt;" style="text;html=1;align=center;verticalAlign=middle;resizable=0;points=[];autosize=1;strokeColor=none;fillColor=none;" parent="1" vertex="1">
          <mxGeometry x="1340" y="565" width="60" height="20" as="geometry" />
        </mxCell>
        <mxCell id="E888Yq9Kur7Cg7WXhxhu-82" value="&lt;font style=&quot;font-size: 27px&quot; face=&quot;Georgia&quot;&gt;&amp;lt;/s&amp;gt;&lt;/font&gt;" style="text;html=1;align=center;verticalAlign=middle;resizable=0;points=[];autosize=1;strokeColor=none;fillColor=none;" parent="1" vertex="1">
          <mxGeometry x="1470" y="487" width="70" height="20" as="geometry" />
        </mxCell>
        <mxCell id="E888Yq9Kur7Cg7WXhxhu-83" value="&lt;font style=&quot;font-size: 27px&quot; face=&quot;Georgia&quot;&gt;&amp;lt;/s&amp;gt;&lt;/font&gt;" style="text;html=1;align=center;verticalAlign=middle;resizable=0;points=[];autosize=1;strokeColor=none;fillColor=none;" parent="1" vertex="1">
          <mxGeometry x="1470" y="567" width="70" height="20" as="geometry" />
        </mxCell>
        <mxCell id="E888Yq9Kur7Cg7WXhxhu-86" value="&lt;font style=&quot;font-size: 27px&quot; face=&quot;Georgia&quot;&gt;&amp;lt;s&amp;gt;&lt;/font&gt;" style="text;html=1;align=center;verticalAlign=middle;resizable=0;points=[];autosize=1;strokeColor=none;fillColor=none;" parent="1" vertex="1">
          <mxGeometry x="1043" y="513" width="60" height="20" as="geometry" />
        </mxCell>
        <mxCell id="E888Yq9Kur7Cg7WXhxhu-100" value="" style="ellipse;whiteSpace=wrap;html=1;aspect=fixed;" parent="1" vertex="1">
          <mxGeometry x="971" y="520" width="30" height="30" as="geometry" />
        </mxCell>
        <mxCell id="E888Yq9Kur7Cg7WXhxhu-102" value="&lt;font style=&quot;font-size: 27px&quot; face=&quot;Georgia&quot;&gt;&amp;lt;/s&amp;gt;&lt;/font&gt;" style="text;html=1;align=center;verticalAlign=middle;resizable=0;points=[];autosize=1;strokeColor=none;fillColor=none;" parent="1" vertex="1">
          <mxGeometry x="901" y="510" width="70" height="20" as="geometry" />
        </mxCell>
        <mxCell id="E888Yq9Kur7Cg7WXhxhu-103" value="&lt;font style=&quot;font-size: 27px&quot; face=&quot;Georgia&quot;&gt;book&lt;/font&gt;" style="text;html=1;align=center;verticalAlign=middle;resizable=0;points=[];autosize=1;strokeColor=none;fillColor=none;" parent="1" vertex="1">
          <mxGeometry x="790" y="458" width="70" height="20" as="geometry" />
        </mxCell>
        <mxCell id="E888Yq9Kur7Cg7WXhxhu-104" value="&lt;font style=&quot;font-size: 27px&quot; face=&quot;Georgia&quot;&gt;book&lt;/font&gt;" style="text;html=1;align=center;verticalAlign=middle;resizable=0;points=[];autosize=1;strokeColor=none;fillColor=none;fontColor=#FF0000;" parent="1" vertex="1">
          <mxGeometry x="731" y="506" width="70" height="20" as="geometry" />
        </mxCell>
        <mxCell id="E888Yq9Kur7Cg7WXhxhu-105" value="&lt;font style=&quot;font-size: 27px&quot; face=&quot;Georgia&quot;&gt;book&lt;/font&gt;" style="text;html=1;align=center;verticalAlign=middle;resizable=0;points=[];autosize=1;strokeColor=none;fillColor=none;fontColor=#FF0000;" parent="1" vertex="1">
          <mxGeometry x="733" y="543" width="70" height="20" as="geometry" />
        </mxCell>
        <mxCell id="E888Yq9Kur7Cg7WXhxhu-106" value="&lt;font style=&quot;font-size: 27px&quot; face=&quot;Georgia&quot;&gt;book&lt;/font&gt;" style="text;html=1;align=center;verticalAlign=middle;resizable=0;points=[];autosize=1;strokeColor=none;fillColor=none;" parent="1" vertex="1">
          <mxGeometry x="790" y="602" width="70" height="20" as="geometry" />
        </mxCell>
        <mxCell id="E888Yq9Kur7Cg7WXhxhu-107" value="&lt;font style=&quot;font-size: 27px&quot; face=&quot;Georgia&quot;&gt;is&lt;/font&gt;" style="text;html=1;align=center;verticalAlign=middle;resizable=0;points=[];autosize=1;strokeColor=none;fillColor=none;fontColor=#000000;" parent="1" vertex="1">
          <mxGeometry x="540" y="407" width="40" height="20" as="geometry" />
        </mxCell>
        <mxCell id="E888Yq9Kur7Cg7WXhxhu-108" value="&lt;font style=&quot;font-size: 27px&quot; face=&quot;Georgia&quot;&gt;is&lt;/font&gt;" style="text;html=1;align=center;verticalAlign=middle;resizable=0;points=[];autosize=1;strokeColor=none;fillColor=none;fontColor=#FF0000;" parent="1" vertex="1">
          <mxGeometry x="540" y="464" width="40" height="20" as="geometry" />
        </mxCell>
        <mxCell id="E888Yq9Kur7Cg7WXhxhu-109" value="&lt;font style=&quot;font-size: 27px&quot; face=&quot;Georgia&quot;&gt;is&lt;/font&gt;" style="text;html=1;align=center;verticalAlign=middle;resizable=0;points=[];autosize=1;strokeColor=none;fillColor=none;fontColor=#FF0000;" parent="1" vertex="1">
          <mxGeometry x="540" y="552" width="40" height="20" as="geometry" />
        </mxCell>
        <mxCell id="E888Yq9Kur7Cg7WXhxhu-110" value="&lt;font style=&quot;font-size: 27px&quot; face=&quot;Georgia&quot;&gt;is&lt;/font&gt;" style="text;html=1;align=center;verticalAlign=middle;resizable=0;points=[];autosize=1;strokeColor=none;fillColor=none;fontColor=#000000;" parent="1" vertex="1">
          <mxGeometry x="540" y="611" width="40" height="20" as="geometry" />
        </mxCell>
        <mxCell id="E888Yq9Kur7Cg7WXhxhu-111" value="&lt;font style=&quot;font-size: 27px&quot; face=&quot;Georgia&quot;&gt;where&lt;/font&gt;" style="text;html=1;align=center;verticalAlign=middle;resizable=0;points=[];autosize=1;strokeColor=none;fillColor=none;" parent="1" vertex="1">
          <mxGeometry x="400" y="416" width="90" height="20" as="geometry" />
        </mxCell>
        <mxCell id="E888Yq9Kur7Cg7WXhxhu-112" value="&lt;font style=&quot;font-size: 27px&quot; face=&quot;Georgia&quot;&gt;where&lt;/font&gt;" style="text;html=1;align=center;verticalAlign=middle;resizable=0;points=[];autosize=1;strokeColor=none;fillColor=none;fontColor=#FF0000;" parent="1" vertex="1">
          <mxGeometry x="400" y="480" width="90" height="20" as="geometry" />
        </mxCell>
        <mxCell id="E888Yq9Kur7Cg7WXhxhu-113" value="&lt;font style=&quot;font-size: 27px&quot; face=&quot;Georgia&quot;&gt;where&lt;/font&gt;" style="text;html=1;align=center;verticalAlign=middle;resizable=0;points=[];autosize=1;strokeColor=none;fillColor=none;fontColor=#FF0000;" parent="1" vertex="1">
          <mxGeometry x="400" y="562" width="90" height="20" as="geometry" />
        </mxCell>
        <mxCell id="E888Yq9Kur7Cg7WXhxhu-114" value="&lt;font style=&quot;font-size: 27px&quot; face=&quot;Georgia&quot;&gt;where&lt;/font&gt;" style="text;html=1;align=center;verticalAlign=middle;resizable=0;points=[];autosize=1;strokeColor=none;fillColor=none;" parent="1" vertex="1">
          <mxGeometry x="400" y="625" width="90" height="20" as="geometry" />
        </mxCell>
        <mxCell id="E888Yq9Kur7Cg7WXhxhu-119" value="&lt;font style=&quot;font-size: 27px&quot; face=&quot;Georgia&quot;&gt;and&lt;/font&gt;" style="text;html=1;align=center;verticalAlign=middle;resizable=0;points=[];autosize=1;strokeColor=none;fillColor=none;" parent="1" vertex="1">
          <mxGeometry x="280" y="474" width="60" height="20" as="geometry" />
        </mxCell>
        <mxCell id="E888Yq9Kur7Cg7WXhxhu-120" value="&lt;font style=&quot;font-size: 27px&quot; face=&quot;Georgia&quot;&gt;ant&lt;/font&gt;" style="text;html=1;align=center;verticalAlign=middle;resizable=0;points=[];autosize=1;strokeColor=none;fillColor=none;" parent="1" vertex="1">
          <mxGeometry x="285" y="577" width="50" height="20" as="geometry" />
        </mxCell>
        <mxCell id="yA_xVkvxDWWqevIZnlIL-2" style="edgeStyle=none;rounded=0;orthogonalLoop=1;jettySize=auto;html=1;exitX=1;exitY=0.5;exitDx=0;exitDy=0;entryX=0;entryY=0.5;entryDx=0;entryDy=0;endArrow=none;endFill=0;fontColor=#FF0000;strokeColor=#000000;" parent="1" source="yA_xVkvxDWWqevIZnlIL-24" target="yA_xVkvxDWWqevIZnlIL-74" edge="1">
          <mxGeometry relative="1" as="geometry">
            <mxPoint x="662" y="1004.9999999999998" as="targetPoint" />
          </mxGeometry>
        </mxCell>
        <mxCell id="yA_xVkvxDWWqevIZnlIL-100" style="edgeStyle=none;rounded=0;orthogonalLoop=1;jettySize=auto;html=1;exitX=1;exitY=0.5;exitDx=0;exitDy=0;entryX=0;entryY=0.5;entryDx=0;entryDy=0;endArrow=none;endFill=0;" parent="1" source="yA_xVkvxDWWqevIZnlIL-4" target="yA_xVkvxDWWqevIZnlIL-72" edge="1">
          <mxGeometry relative="1" as="geometry" />
        </mxCell>
        <mxCell id="yA_xVkvxDWWqevIZnlIL-4" value="" style="ellipse;whiteSpace=wrap;html=1;aspect=fixed;fillColor=none;" parent="1" vertex="1">
          <mxGeometry x="580" y="818.5" width="30" height="30" as="geometry" />
        </mxCell>
        <mxCell id="yA_xVkvxDWWqevIZnlIL-5" style="edgeStyle=none;rounded=0;orthogonalLoop=1;jettySize=auto;html=1;exitX=1;exitY=0.5;exitDx=0;exitDy=0;entryX=0;entryY=0.5;entryDx=0;entryDy=0;endArrow=none;endFill=0;" parent="1" source="yA_xVkvxDWWqevIZnlIL-72" target="yA_xVkvxDWWqevIZnlIL-10" edge="1">
          <mxGeometry relative="1" as="geometry">
            <mxPoint x="692" y="801" as="sourcePoint" />
          </mxGeometry>
        </mxCell>
        <mxCell id="yA_xVkvxDWWqevIZnlIL-7" style="edgeStyle=none;rounded=0;orthogonalLoop=1;jettySize=auto;html=1;exitX=1;exitY=0.5;exitDx=0;exitDy=0;entryX=0;entryY=0.5;entryDx=0;entryDy=0;endArrow=none;endFill=0;" parent="1" source="yA_xVkvxDWWqevIZnlIL-74" target="yA_xVkvxDWWqevIZnlIL-14" edge="1">
          <mxGeometry relative="1" as="geometry">
            <mxPoint x="692" y="1004.9999999999998" as="sourcePoint" />
          </mxGeometry>
        </mxCell>
        <mxCell id="yA_xVkvxDWWqevIZnlIL-9" style="edgeStyle=none;rounded=0;orthogonalLoop=1;jettySize=auto;html=1;exitX=1;exitY=0.5;exitDx=0;exitDy=0;entryX=0;entryY=0.5;entryDx=0;entryDy=0;fontColor=#000000;endArrow=none;endFill=0;strokeColor=#000000;" parent="1" source="yA_xVkvxDWWqevIZnlIL-10" target="yA_xVkvxDWWqevIZnlIL-56" edge="1">
          <mxGeometry relative="1" as="geometry" />
        </mxCell>
        <mxCell id="yA_xVkvxDWWqevIZnlIL-10" value="" style="ellipse;whiteSpace=wrap;html=1;aspect=fixed;" parent="1" vertex="1">
          <mxGeometry x="783" y="786" width="30" height="30" as="geometry" />
        </mxCell>
        <mxCell id="yA_xVkvxDWWqevIZnlIL-11" style="edgeStyle=none;rounded=0;orthogonalLoop=1;jettySize=auto;html=1;exitX=1;exitY=0.5;exitDx=0;exitDy=0;entryX=0;entryY=0.5;entryDx=0;entryDy=0;fontSize=18;endArrow=none;endFill=0;fontColor=#FF0000;strokeColor=#FF0000;" parent="1" source="yA_xVkvxDWWqevIZnlIL-12" target="yA_xVkvxDWWqevIZnlIL-19" edge="1">
          <mxGeometry relative="1" as="geometry" />
        </mxCell>
        <mxCell id="yA_xVkvxDWWqevIZnlIL-12" value="" style="ellipse;whiteSpace=wrap;html=1;aspect=fixed;fontColor=#FF0000;fillColor=#FF0000;strokeColor=#FF0000;" parent="1" vertex="1">
          <mxGeometry x="783" y="844" width="30" height="30" as="geometry" />
        </mxCell>
        <mxCell id="yA_xVkvxDWWqevIZnlIL-13" style="edgeStyle=none;rounded=0;orthogonalLoop=1;jettySize=auto;html=1;exitX=1;exitY=0.5;exitDx=0;exitDy=0;entryX=0;entryY=0.5;entryDx=0;entryDy=0;fontSize=18;endArrow=none;endFill=0;" parent="1" source="yA_xVkvxDWWqevIZnlIL-14" target="yA_xVkvxDWWqevIZnlIL-63" edge="1">
          <mxGeometry relative="1" as="geometry">
            <mxPoint x="903" y="925.0000000000002" as="targetPoint" />
          </mxGeometry>
        </mxCell>
        <mxCell id="yA_xVkvxDWWqevIZnlIL-14" value="" style="ellipse;whiteSpace=wrap;html=1;aspect=fixed;" parent="1" vertex="1">
          <mxGeometry x="783" y="990" width="30" height="30" as="geometry" />
        </mxCell>
        <mxCell id="yA_xVkvxDWWqevIZnlIL-15" style="rounded=0;orthogonalLoop=1;jettySize=auto;html=1;exitX=1;exitY=0.5;exitDx=0;exitDy=0;entryX=0;entryY=0.5;entryDx=0;entryDy=0;endArrow=none;endFill=0;" parent="1" source="yA_xVkvxDWWqevIZnlIL-17" target="yA_xVkvxDWWqevIZnlIL-81" edge="1">
          <mxGeometry relative="1" as="geometry" />
        </mxCell>
        <mxCell id="yA_xVkvxDWWqevIZnlIL-16" style="rounded=0;orthogonalLoop=1;jettySize=auto;html=1;exitX=1;exitY=0.5;exitDx=0;exitDy=0;entryX=0;entryY=0.5;entryDx=0;entryDy=0;endArrow=none;endFill=0;" parent="1" source="yA_xVkvxDWWqevIZnlIL-17" target="yA_xVkvxDWWqevIZnlIL-83" edge="1">
          <mxGeometry relative="1" as="geometry" />
        </mxCell>
        <mxCell id="yA_xVkvxDWWqevIZnlIL-17" value="" style="ellipse;whiteSpace=wrap;html=1;aspect=fixed;" parent="1" vertex="1">
          <mxGeometry x="340" y="889" width="30" height="30" as="geometry" />
        </mxCell>
        <mxCell id="yA_xVkvxDWWqevIZnlIL-18" style="edgeStyle=none;rounded=0;orthogonalLoop=1;jettySize=auto;html=1;exitX=1;exitY=0.5;exitDx=0;exitDy=0;entryX=0;entryY=0.5;entryDx=0;entryDy=0;fontSize=18;endArrow=none;endFill=0;fontColor=#FF0000;strokeColor=#FF0000;" parent="1" source="yA_xVkvxDWWqevIZnlIL-19" target="yA_xVkvxDWWqevIZnlIL-21" edge="1">
          <mxGeometry relative="1" as="geometry" />
        </mxCell>
        <mxCell id="yA_xVkvxDWWqevIZnlIL-19" value="" style="ellipse;whiteSpace=wrap;html=1;aspect=fixed;fontColor=#FF0000;fillColor=#FF0000;strokeColor=#FF0000;" parent="1" vertex="1">
          <mxGeometry x="901" y="844" width="30" height="30" as="geometry" />
        </mxCell>
        <mxCell id="yA_xVkvxDWWqevIZnlIL-20" style="edgeStyle=none;rounded=0;orthogonalLoop=1;jettySize=auto;html=1;exitX=1;exitY=0.5;exitDx=0;exitDy=0;entryX=0;entryY=0.5;entryDx=0;entryDy=0;fontColor=#FF0000;endArrow=none;endFill=0;strokeColor=#FF0000;" parent="1" source="yA_xVkvxDWWqevIZnlIL-21" target="yA_xVkvxDWWqevIZnlIL-67" edge="1">
          <mxGeometry relative="1" as="geometry" />
        </mxCell>
        <mxCell id="yA_xVkvxDWWqevIZnlIL-21" value="" style="ellipse;whiteSpace=wrap;html=1;aspect=fixed;fontColor=#FF0000;fillColor=#FF0000;strokeColor=#FF0000;" parent="1" vertex="1">
          <mxGeometry x="1049" y="844" width="30" height="30" as="geometry" />
        </mxCell>
        <mxCell id="yA_xVkvxDWWqevIZnlIL-22" value="&lt;span style=&quot;font-family: &amp;#34;georgia&amp;#34; ; font-size: 27px&quot;&gt;&amp;lt;/s&amp;gt;\&amp;lt;s&amp;gt;&lt;/span&gt;" style="text;html=1;align=center;verticalAlign=middle;resizable=0;points=[];autosize=1;strokeColor=none;fillColor=none;" parent="1" vertex="1">
          <mxGeometry x="203" y="895" width="130" height="20" as="geometry" />
        </mxCell>
        <mxCell id="yA_xVkvxDWWqevIZnlIL-24" value="" style="ellipse;whiteSpace=wrap;html=1;aspect=fixed;fillColor=none;" parent="1" vertex="1">
          <mxGeometry x="580" y="961.5" width="30" height="30" as="geometry" />
        </mxCell>
        <mxCell id="yA_xVkvxDWWqevIZnlIL-25" value="&lt;font style=&quot;font-size: 27px&quot; face=&quot;Georgia&quot;&gt;where&lt;/font&gt;" style="text;html=1;align=center;verticalAlign=middle;resizable=0;points=[];autosize=1;strokeColor=none;fillColor=none;" parent="1" vertex="1">
          <mxGeometry x="485" y="809" width="90" height="20" as="geometry" />
        </mxCell>
        <mxCell id="yA_xVkvxDWWqevIZnlIL-26" value="&lt;font style=&quot;font-size: 27px&quot; face=&quot;Georgia&quot;&gt;where&lt;/font&gt;" style="text;html=1;align=center;verticalAlign=middle;resizable=0;points=[];autosize=1;strokeColor=none;fillColor=none;" parent="1" vertex="1">
          <mxGeometry x="484" y="951" width="90" height="20" as="geometry" />
        </mxCell>
        <mxCell id="yA_xVkvxDWWqevIZnlIL-27" value="&lt;font style=&quot;font-size: 27px&quot; face=&quot;Georgia&quot;&gt;is&lt;/font&gt;" style="text;html=1;align=center;verticalAlign=middle;resizable=0;points=[];autosize=1;fillColor=none;" parent="1" vertex="1">
          <mxGeometry x="613" y="809" width="40" height="20" as="geometry" />
        </mxCell>
        <mxCell id="yA_xVkvxDWWqevIZnlIL-28" value="&lt;font face=&quot;Georgia&quot;&gt;&lt;span style=&quot;font-size: 27px&quot;&gt;is&lt;/span&gt;&lt;/font&gt;" style="text;html=1;align=center;verticalAlign=middle;resizable=0;points=[];autosize=1;fillColor=none;" parent="1" vertex="1">
          <mxGeometry x="613" y="951" width="40" height="20" as="geometry" />
        </mxCell>
        <mxCell id="yA_xVkvxDWWqevIZnlIL-29" value="&lt;font style=&quot;font-size: 27px&quot; face=&quot;Georgia&quot;&gt;the&lt;/font&gt;" style="text;html=1;align=center;verticalAlign=middle;resizable=0;points=[];autosize=1;strokeColor=none;fillColor=none;fontColor=#FF0000;" parent="1" vertex="1">
          <mxGeometry x="704" y="936" width="50" height="20" as="geometry" />
        </mxCell>
        <mxCell id="yA_xVkvxDWWqevIZnlIL-30" value="&lt;font style=&quot;font-size: 27px&quot; face=&quot;Georgia&quot;&gt;the&lt;/font&gt;" style="text;html=1;align=center;verticalAlign=middle;resizable=0;points=[];autosize=1;strokeColor=none;fillColor=none;fontColor=#FF0000;" parent="1" vertex="1">
          <mxGeometry x="704" y="845" width="50" height="20" as="geometry" />
        </mxCell>
        <mxCell id="yA_xVkvxDWWqevIZnlIL-31" value="&lt;font style=&quot;font-size: 27px&quot; face=&quot;Georgia&quot;&gt;these&lt;/font&gt;" style="text;html=1;align=center;verticalAlign=middle;resizable=0;points=[];autosize=1;strokeColor=none;fillColor=none;" parent="1" vertex="1">
          <mxGeometry x="689" y="789" width="80" height="20" as="geometry" />
        </mxCell>
        <mxCell id="yA_xVkvxDWWqevIZnlIL-32" value="&lt;font style=&quot;font-size: 27px&quot; face=&quot;Georgia&quot;&gt;there&lt;/font&gt;" style="text;html=1;align=center;verticalAlign=middle;resizable=0;points=[];autosize=1;strokeColor=none;fillColor=none;" parent="1" vertex="1">
          <mxGeometry x="689" y="991.5" width="80" height="20" as="geometry" />
        </mxCell>
        <mxCell id="yA_xVkvxDWWqevIZnlIL-33" value="&lt;font style=&quot;font-size: 27px&quot; face=&quot;Georgia&quot;&gt;book&lt;/font&gt;" style="text;html=1;align=center;verticalAlign=middle;resizable=0;points=[];autosize=1;strokeColor=none;fillColor=none;fontColor=#000000;" parent="1" vertex="1">
          <mxGeometry x="823" y="776" width="70" height="20" as="geometry" />
        </mxCell>
        <mxCell id="yA_xVkvxDWWqevIZnlIL-34" value="&lt;font style=&quot;font-size: 27px&quot; face=&quot;Georgia&quot;&gt;book&lt;/font&gt;" style="text;html=1;align=center;verticalAlign=middle;resizable=0;points=[];autosize=1;strokeColor=none;fillColor=none;fontColor=#FF0000;" parent="1" vertex="1">
          <mxGeometry x="823" y="833" width="70" height="20" as="geometry" />
        </mxCell>
        <mxCell id="yA_xVkvxDWWqevIZnlIL-35" value="&lt;font style=&quot;font-size: 27px&quot; face=&quot;Georgia&quot;&gt;&amp;lt;/s&amp;gt;\&amp;lt;s&amp;gt;&lt;/font&gt;" style="text;html=1;align=center;verticalAlign=middle;resizable=0;points=[];autosize=1;strokeColor=none;fillColor=none;fontColor=#000000;" parent="1" vertex="1">
          <mxGeometry x="924" y="775" width="130" height="20" as="geometry" />
        </mxCell>
        <mxCell id="yA_xVkvxDWWqevIZnlIL-36" style="edgeStyle=none;rounded=0;orthogonalLoop=1;jettySize=auto;html=1;exitX=1;exitY=0.5;exitDx=0;exitDy=0;entryX=0;entryY=0.5;entryDx=0;entryDy=0;fontSize=18;endArrow=none;endFill=0;" parent="1" source="yA_xVkvxDWWqevIZnlIL-38" target="yA_xVkvxDWWqevIZnlIL-40" edge="1">
          <mxGeometry relative="1" as="geometry" />
        </mxCell>
        <mxCell id="yA_xVkvxDWWqevIZnlIL-37" style="edgeStyle=none;rounded=0;orthogonalLoop=1;jettySize=auto;html=1;exitX=1;exitY=0.5;exitDx=0;exitDy=0;entryX=0;entryY=0.5;entryDx=0;entryDy=0;fontSize=18;endArrow=none;endFill=0;" parent="1" source="yA_xVkvxDWWqevIZnlIL-38" target="yA_xVkvxDWWqevIZnlIL-42" edge="1">
          <mxGeometry relative="1" as="geometry" />
        </mxCell>
        <mxCell id="yA_xVkvxDWWqevIZnlIL-38" value="" style="ellipse;whiteSpace=wrap;html=1;aspect=fixed;fillColor=none;" parent="1" vertex="1">
          <mxGeometry x="1243" y="889" width="30" height="30" as="geometry" />
        </mxCell>
        <mxCell id="yA_xVkvxDWWqevIZnlIL-39" style="edgeStyle=none;rounded=0;orthogonalLoop=1;jettySize=auto;html=1;exitX=1;exitY=0.5;exitDx=0;exitDy=0;entryX=0;entryY=0.5;entryDx=0;entryDy=0;fontSize=18;endArrow=none;endFill=0;" parent="1" source="yA_xVkvxDWWqevIZnlIL-40" target="yA_xVkvxDWWqevIZnlIL-43" edge="1">
          <mxGeometry relative="1" as="geometry" />
        </mxCell>
        <mxCell id="yA_xVkvxDWWqevIZnlIL-40" value="" style="ellipse;whiteSpace=wrap;html=1;aspect=fixed;" parent="1" vertex="1">
          <mxGeometry x="1386" y="848" width="30" height="30" as="geometry" />
        </mxCell>
        <mxCell id="yA_xVkvxDWWqevIZnlIL-41" style="edgeStyle=none;rounded=0;orthogonalLoop=1;jettySize=auto;html=1;exitX=1;exitY=0.5;exitDx=0;exitDy=0;fontSize=18;endArrow=none;endFill=0;entryX=0;entryY=0.5;entryDx=0;entryDy=0;" parent="1" source="yA_xVkvxDWWqevIZnlIL-42" target="yA_xVkvxDWWqevIZnlIL-43" edge="1">
          <mxGeometry relative="1" as="geometry">
            <mxPoint x="1646" y="928" as="targetPoint" />
          </mxGeometry>
        </mxCell>
        <mxCell id="yA_xVkvxDWWqevIZnlIL-42" value="" style="ellipse;whiteSpace=wrap;html=1;aspect=fixed;" parent="1" vertex="1">
          <mxGeometry x="1386" y="923" width="30" height="30" as="geometry" />
        </mxCell>
        <mxCell id="yA_xVkvxDWWqevIZnlIL-43" value="" style="ellipse;whiteSpace=wrap;html=1;aspect=fixed;" parent="1" vertex="1">
          <mxGeometry x="1540" y="888" width="30" height="30" as="geometry" />
        </mxCell>
        <mxCell id="yA_xVkvxDWWqevIZnlIL-44" value="&lt;font style=&quot;font-size: 27px&quot; face=&quot;Georgia&quot;&gt;desk&lt;/font&gt;" style="text;html=1;align=center;verticalAlign=middle;resizable=0;points=[];autosize=1;strokeColor=none;fillColor=none;" parent="1" vertex="1">
          <mxGeometry x="1300" y="848" width="70" height="20" as="geometry" />
        </mxCell>
        <mxCell id="yA_xVkvxDWWqevIZnlIL-45" value="&lt;font style=&quot;font-size: 27px&quot; face=&quot;Georgia&quot;&gt;task&lt;/font&gt;" style="text;html=1;align=center;verticalAlign=middle;resizable=0;points=[];autosize=1;strokeColor=none;fillColor=none;" parent="1" vertex="1">
          <mxGeometry x="1305" y="931" width="60" height="20" as="geometry" />
        </mxCell>
        <mxCell id="yA_xVkvxDWWqevIZnlIL-46" value="&lt;font style=&quot;font-size: 27px&quot; face=&quot;Georgia&quot;&gt;&amp;lt;/s&amp;gt;\&amp;lt;s&amp;gt;&lt;/font&gt;" style="text;html=1;align=center;verticalAlign=middle;resizable=0;points=[];autosize=1;strokeColor=none;fillColor=none;" parent="1" vertex="1">
          <mxGeometry x="1424" y="843" width="130" height="20" as="geometry" />
        </mxCell>
        <mxCell id="yA_xVkvxDWWqevIZnlIL-47" value="&lt;font style=&quot;font-size: 27px&quot; face=&quot;Georgia&quot;&gt;&amp;lt;/s&amp;gt;\&amp;lt;s&amp;gt;&lt;/font&gt;" style="text;html=1;align=center;verticalAlign=middle;resizable=0;points=[];autosize=1;strokeColor=none;fillColor=none;" parent="1" vertex="1">
          <mxGeometry x="1424" y="943" width="130" height="20" as="geometry" />
        </mxCell>
        <mxCell id="yA_xVkvxDWWqevIZnlIL-48" style="edgeStyle=none;rounded=0;orthogonalLoop=1;jettySize=auto;html=1;exitX=1;exitY=0.5;exitDx=0;exitDy=0;fontColor=#FF0000;endArrow=none;endFill=0;strokeColor=#000000;entryX=0;entryY=0.5;entryDx=0;entryDy=0;" parent="1" source="yA_xVkvxDWWqevIZnlIL-49" target="yA_xVkvxDWWqevIZnlIL-67" edge="1">
          <mxGeometry relative="1" as="geometry">
            <mxPoint x="1153" y="920" as="targetPoint" />
          </mxGeometry>
        </mxCell>
        <mxCell id="yA_xVkvxDWWqevIZnlIL-49" value="" style="ellipse;whiteSpace=wrap;html=1;aspect=fixed;fillColor=none;" parent="1" vertex="1">
          <mxGeometry x="1049" y="990" width="30" height="30" as="geometry" />
        </mxCell>
        <mxCell id="yA_xVkvxDWWqevIZnlIL-50" style="edgeStyle=none;rounded=0;orthogonalLoop=1;jettySize=auto;html=1;exitX=1;exitY=0.5;exitDx=0;exitDy=0;fontColor=#FF0000;endArrow=none;endFill=0;strokeColor=#FF0000;entryX=0;entryY=0.5;entryDx=0;entryDy=0;" parent="1" source="yA_xVkvxDWWqevIZnlIL-51" target="yA_xVkvxDWWqevIZnlIL-67" edge="1">
          <mxGeometry relative="1" as="geometry">
            <mxPoint x="1143" y="920" as="targetPoint" />
          </mxGeometry>
        </mxCell>
        <mxCell id="yA_xVkvxDWWqevIZnlIL-51" value="" style="ellipse;whiteSpace=wrap;html=1;aspect=fixed;fontColor=#FF0000;fillColor=#FF0000;strokeColor=#FF0000;" parent="1" vertex="1">
          <mxGeometry x="1049" y="931" width="30" height="30" as="geometry" />
        </mxCell>
        <mxCell id="yA_xVkvxDWWqevIZnlIL-52" style="edgeStyle=none;rounded=0;orthogonalLoop=1;jettySize=auto;html=1;exitX=1;exitY=0.5;exitDx=0;exitDy=0;entryX=0;entryY=0.5;entryDx=0;entryDy=0;fontColor=#FF0000;endArrow=none;endFill=0;strokeColor=#000000;" parent="1" source="yA_xVkvxDWWqevIZnlIL-53" target="yA_xVkvxDWWqevIZnlIL-67" edge="1">
          <mxGeometry relative="1" as="geometry" />
        </mxCell>
        <mxCell id="yA_xVkvxDWWqevIZnlIL-53" value="" style="ellipse;whiteSpace=wrap;html=1;aspect=fixed;fillColor=none;" parent="1" vertex="1">
          <mxGeometry x="1049" y="786" width="30" height="30" as="geometry" />
        </mxCell>
        <mxCell id="yA_xVkvxDWWqevIZnlIL-54" value="&lt;font style=&quot;font-size: 27px&quot; face=&quot;Georgia&quot;&gt;on&lt;/font&gt;" style="text;html=1;align=center;verticalAlign=middle;resizable=0;points=[];autosize=1;strokeColor=none;fillColor=none;fontColor=#000000;" parent="1" vertex="1">
          <mxGeometry x="1103" y="823" width="50" height="20" as="geometry" />
        </mxCell>
        <mxCell id="yA_xVkvxDWWqevIZnlIL-55" style="edgeStyle=none;rounded=0;orthogonalLoop=1;jettySize=auto;html=1;exitX=1;exitY=0.5;exitDx=0;exitDy=0;entryX=0;entryY=0.5;entryDx=0;entryDy=0;fontColor=#000000;endArrow=none;endFill=0;strokeColor=#000000;" parent="1" source="yA_xVkvxDWWqevIZnlIL-56" target="yA_xVkvxDWWqevIZnlIL-53" edge="1">
          <mxGeometry relative="1" as="geometry" />
        </mxCell>
        <mxCell id="yA_xVkvxDWWqevIZnlIL-56" value="" style="ellipse;whiteSpace=wrap;html=1;aspect=fixed;" parent="1" vertex="1">
          <mxGeometry x="901" y="786" width="30" height="30" as="geometry" />
        </mxCell>
        <mxCell id="yA_xVkvxDWWqevIZnlIL-57" style="edgeStyle=none;rounded=0;orthogonalLoop=1;jettySize=auto;html=1;exitX=1;exitY=0.5;exitDx=0;exitDy=0;entryX=0;entryY=0.5;entryDx=0;entryDy=0;fontColor=#FF0000;endArrow=none;endFill=0;strokeColor=#FF0000;" parent="1" source="yA_xVkvxDWWqevIZnlIL-58" target="yA_xVkvxDWWqevIZnlIL-61" edge="1">
          <mxGeometry relative="1" as="geometry" />
        </mxCell>
        <mxCell id="yA_xVkvxDWWqevIZnlIL-58" value="" style="ellipse;whiteSpace=wrap;html=1;aspect=fixed;fontColor=#FF0000;fillColor=#FF0000;strokeColor=#FF0000;" parent="1" vertex="1">
          <mxGeometry x="783" y="931" width="30" height="30" as="geometry" />
        </mxCell>
        <mxCell id="yA_xVkvxDWWqevIZnlIL-59" value="&lt;font style=&quot;font-size: 27px&quot; face=&quot;Georgia&quot;&gt;&amp;lt;/s&amp;gt;\&amp;lt;s&amp;gt;&lt;/font&gt;" style="text;html=1;align=center;verticalAlign=middle;resizable=0;points=[];autosize=1;strokeColor=none;fillColor=none;fontColor=#FF0000;" parent="1" vertex="1">
          <mxGeometry x="924" y="833" width="130" height="20" as="geometry" />
        </mxCell>
        <mxCell id="yA_xVkvxDWWqevIZnlIL-60" style="edgeStyle=none;rounded=0;orthogonalLoop=1;jettySize=auto;html=1;exitX=1;exitY=0.5;exitDx=0;exitDy=0;entryX=0;entryY=0.5;entryDx=0;entryDy=0;fontColor=#FF0000;endArrow=none;endFill=0;strokeColor=#FF0000;" parent="1" source="yA_xVkvxDWWqevIZnlIL-61" target="yA_xVkvxDWWqevIZnlIL-51" edge="1">
          <mxGeometry relative="1" as="geometry" />
        </mxCell>
        <mxCell id="yA_xVkvxDWWqevIZnlIL-61" value="" style="ellipse;whiteSpace=wrap;html=1;aspect=fixed;fontColor=#FF0000;fillColor=#FF0000;strokeColor=#FF0000;" parent="1" vertex="1">
          <mxGeometry x="901" y="931" width="30" height="30" as="geometry" />
        </mxCell>
        <mxCell id="yA_xVkvxDWWqevIZnlIL-62" style="edgeStyle=none;rounded=0;orthogonalLoop=1;jettySize=auto;html=1;exitX=1;exitY=0.5;exitDx=0;exitDy=0;entryX=0;entryY=0.5;entryDx=0;entryDy=0;fontColor=#FF0000;endArrow=none;endFill=0;strokeColor=#000000;" parent="1" source="yA_xVkvxDWWqevIZnlIL-63" target="yA_xVkvxDWWqevIZnlIL-49" edge="1">
          <mxGeometry relative="1" as="geometry" />
        </mxCell>
        <mxCell id="yA_xVkvxDWWqevIZnlIL-63" value="" style="ellipse;whiteSpace=wrap;html=1;aspect=fixed;" parent="1" vertex="1">
          <mxGeometry x="901" y="990" width="30" height="30" as="geometry" />
        </mxCell>
        <mxCell id="yA_xVkvxDWWqevIZnlIL-64" value="&lt;font style=&quot;font-size: 27px&quot; face=&quot;Georgia&quot;&gt;book&lt;/font&gt;" style="text;html=1;align=center;verticalAlign=middle;resizable=0;points=[];autosize=1;strokeColor=none;fillColor=none;fontColor=#FF0000;" parent="1" vertex="1">
          <mxGeometry x="823" y="921" width="70" height="20" as="geometry" />
        </mxCell>
        <mxCell id="yA_xVkvxDWWqevIZnlIL-65" value="&lt;font style=&quot;font-size: 27px&quot; face=&quot;Georgia&quot;&gt;book&lt;/font&gt;" style="text;html=1;align=center;verticalAlign=middle;resizable=0;points=[];autosize=1;strokeColor=none;fillColor=none;fontColor=#000000;" parent="1" vertex="1">
          <mxGeometry x="823" y="981" width="70" height="20" as="geometry" />
        </mxCell>
        <mxCell id="yA_xVkvxDWWqevIZnlIL-66" style="edgeStyle=none;rounded=0;orthogonalLoop=1;jettySize=auto;html=1;exitX=1;exitY=0.5;exitDx=0;exitDy=0;entryX=0;entryY=0.5;entryDx=0;entryDy=0;fontColor=#FF0000;endArrow=none;endFill=0;strokeColor=#000000;" parent="1" source="yA_xVkvxDWWqevIZnlIL-67" target="yA_xVkvxDWWqevIZnlIL-38" edge="1">
          <mxGeometry relative="1" as="geometry" />
        </mxCell>
        <mxCell id="yA_xVkvxDWWqevIZnlIL-67" value="" style="ellipse;whiteSpace=wrap;html=1;aspect=fixed;fillColor=none;" parent="1" vertex="1">
          <mxGeometry x="1164" y="890" width="30" height="30" as="geometry" />
        </mxCell>
        <mxCell id="yA_xVkvxDWWqevIZnlIL-68" value="&lt;font style=&quot;font-size: 27px&quot; face=&quot;Georgia&quot;&gt;&amp;lt;/s&amp;gt;\&amp;lt;s&amp;gt;&lt;/font&gt;" style="text;html=1;align=center;verticalAlign=middle;resizable=0;points=[];autosize=1;strokeColor=none;fillColor=none;fontColor=#000000;" parent="1" vertex="1">
          <mxGeometry x="924" y="980" width="130" height="20" as="geometry" />
        </mxCell>
        <mxCell id="yA_xVkvxDWWqevIZnlIL-69" value="&lt;font style=&quot;font-size: 27px&quot; face=&quot;Georgia&quot;&gt;&amp;lt;/s&amp;gt;\&amp;lt;s&amp;gt;&lt;/font&gt;" style="text;html=1;align=center;verticalAlign=middle;resizable=0;points=[];autosize=1;strokeColor=none;fillColor=none;fontColor=#FF0000;" parent="1" vertex="1">
          <mxGeometry x="924" y="921" width="130" height="20" as="geometry" />
        </mxCell>
        <mxCell id="yA_xVkvxDWWqevIZnlIL-70" value="&lt;font style=&quot;font-size: 27px&quot; face=&quot;Georgia&quot;&gt;the&lt;/font&gt;" style="text;html=1;align=center;verticalAlign=middle;resizable=0;points=[];autosize=1;strokeColor=none;fillColor=none;fontColor=#000000;" parent="1" vertex="1">
          <mxGeometry x="1193" y="877" width="50" height="20" as="geometry" />
        </mxCell>
        <mxCell id="yA_xVkvxDWWqevIZnlIL-71" style="edgeStyle=none;rounded=0;orthogonalLoop=1;jettySize=auto;html=1;exitX=1;exitY=0.5;exitDx=0;exitDy=0;entryX=0;entryY=0.5;entryDx=0;entryDy=0;fontColor=#000000;endArrow=none;endFill=0;strokeColor=#FF0000;" parent="1" source="yA_xVkvxDWWqevIZnlIL-72" target="yA_xVkvxDWWqevIZnlIL-12" edge="1">
          <mxGeometry relative="1" as="geometry" />
        </mxCell>
        <mxCell id="yA_xVkvxDWWqevIZnlIL-72" value="" style="ellipse;whiteSpace=wrap;html=1;aspect=fixed;fontColor=#FF0000;fillColor=#FF0000;strokeColor=#FF0000;" parent="1" vertex="1">
          <mxGeometry x="662" y="818.5" width="30" height="30" as="geometry" />
        </mxCell>
        <mxCell id="yA_xVkvxDWWqevIZnlIL-73" style="edgeStyle=none;rounded=0;orthogonalLoop=1;jettySize=auto;html=1;exitX=1;exitY=0.5;exitDx=0;exitDy=0;entryX=0;entryY=0.5;entryDx=0;entryDy=0;fontColor=#000000;endArrow=none;endFill=0;strokeColor=#FF0000;" parent="1" source="yA_xVkvxDWWqevIZnlIL-74" target="yA_xVkvxDWWqevIZnlIL-58" edge="1">
          <mxGeometry relative="1" as="geometry" />
        </mxCell>
        <mxCell id="yA_xVkvxDWWqevIZnlIL-74" value="" style="ellipse;whiteSpace=wrap;html=1;aspect=fixed;fontColor=#FF0000;fillColor=#FF0000;strokeColor=#FF0000;" parent="1" vertex="1">
          <mxGeometry x="662" y="961.5" width="30" height="30" as="geometry" />
        </mxCell>
        <mxCell id="yA_xVkvxDWWqevIZnlIL-77" value="&lt;font style=&quot;font-size: 27px&quot; face=&quot;Georgia&quot;&gt;on&lt;/font&gt;" style="text;html=1;align=center;verticalAlign=middle;resizable=0;points=[];autosize=1;strokeColor=none;fillColor=none;fontColor=#FF0000;" parent="1" vertex="1">
          <mxGeometry x="1070" y="870" width="50" height="20" as="geometry" />
        </mxCell>
        <mxCell id="yA_xVkvxDWWqevIZnlIL-78" value="&lt;font style=&quot;font-size: 27px&quot; face=&quot;Georgia&quot;&gt;on&lt;/font&gt;" style="text;html=1;align=center;verticalAlign=middle;resizable=0;points=[];autosize=1;strokeColor=none;fillColor=none;fontColor=#FF0000;" parent="1" vertex="1">
          <mxGeometry x="1070" y="910" width="50" height="20" as="geometry" />
        </mxCell>
        <mxCell id="yA_xVkvxDWWqevIZnlIL-79" value="&lt;font style=&quot;font-size: 27px&quot; face=&quot;Georgia&quot;&gt;on&lt;/font&gt;" style="text;html=1;align=center;verticalAlign=middle;resizable=0;points=[];autosize=1;strokeColor=none;fillColor=none;fontColor=#000000;" parent="1" vertex="1">
          <mxGeometry x="1103" y="961" width="50" height="20" as="geometry" />
        </mxCell>
        <mxCell id="yA_xVkvxDWWqevIZnlIL-80" style="edgeStyle=orthogonalEdgeStyle;rounded=0;orthogonalLoop=1;jettySize=auto;html=1;exitX=1;exitY=0.5;exitDx=0;exitDy=0;entryX=0;entryY=0.5;entryDx=0;entryDy=0;endArrow=none;endFill=0;" parent="1" source="yA_xVkvxDWWqevIZnlIL-81" target="yA_xVkvxDWWqevIZnlIL-4" edge="1">
          <mxGeometry relative="1" as="geometry" />
        </mxCell>
        <mxCell id="yA_xVkvxDWWqevIZnlIL-81" value="" style="ellipse;whiteSpace=wrap;html=1;aspect=fixed;" parent="1" vertex="1">
          <mxGeometry x="450" y="818.5" width="30" height="30" as="geometry" />
        </mxCell>
        <mxCell id="yA_xVkvxDWWqevIZnlIL-82" style="edgeStyle=orthogonalEdgeStyle;rounded=0;orthogonalLoop=1;jettySize=auto;html=1;exitX=1;exitY=0.5;exitDx=0;exitDy=0;entryX=0;entryY=0.5;entryDx=0;entryDy=0;endArrow=none;endFill=0;" parent="1" source="yA_xVkvxDWWqevIZnlIL-83" target="yA_xVkvxDWWqevIZnlIL-24" edge="1">
          <mxGeometry relative="1" as="geometry" />
        </mxCell>
        <mxCell id="yA_xVkvxDWWqevIZnlIL-83" value="" style="ellipse;whiteSpace=wrap;html=1;aspect=fixed;" parent="1" vertex="1">
          <mxGeometry x="450" y="961.5" width="30" height="30" as="geometry" />
        </mxCell>
        <mxCell id="yA_xVkvxDWWqevIZnlIL-84" value="&lt;font style=&quot;font-size: 27px&quot; face=&quot;Georgia&quot;&gt;and&lt;/font&gt;" style="text;html=1;align=center;verticalAlign=middle;resizable=0;points=[];autosize=1;strokeColor=none;fillColor=none;" parent="1" vertex="1">
          <mxGeometry x="360" y="845" width="60" height="20" as="geometry" />
        </mxCell>
        <mxCell id="yA_xVkvxDWWqevIZnlIL-85" value="&lt;font style=&quot;font-size: 27px&quot; face=&quot;Georgia&quot;&gt;ant&lt;/font&gt;" style="text;html=1;align=center;verticalAlign=middle;resizable=0;points=[];autosize=1;strokeColor=none;fillColor=none;" parent="1" vertex="1">
          <mxGeometry x="365" y="945" width="50" height="20" as="geometry" />
        </mxCell>
      </root>
    </mxGraphModel>
  </diagram>
</mxfile>
